<svg width="16" height="19" viewBox="0 0 16 19" fill="none" xmlns="http://www.w3.org/2000/svg">
<path d="M8 11.1658C6.89493 11.1658 5.83512 10.7133 5.05372 9.90792C4.27232 9.10254 3.83333 8.01021 3.83333 6.87123H5.5C5.5 7.55462 5.76339 8.21002 6.23223 8.69325C6.70107 9.17648 7.33696 9.44795 8 9.44795C8.66304 9.44795 9.29893 9.17648 9.76777 8.69325C10.2366 8.21002 10.5 7.55462 10.5 6.87123H12.1667C12.1667 8.01021 11.7277 9.10254 10.9463 9.90792C10.1649 10.7133 9.10507 11.1658 8 11.1658ZM8 2.5767C8.66304 2.5767 9.29893 2.84817 9.76777 3.3314C10.2366 3.81463 10.5 4.47003 10.5 5.15342H5.5C5.5 4.47003 5.76339 3.81463 6.23223 3.3314C6.70107 2.84817 7.33696 2.5767 8 2.5767ZM13.8333 5.15342H12.1667C12.1667 4.58945 12.0589 4.03101 11.8495 3.50997C11.6401 2.98894 11.3332 2.51551 10.9463 2.11673C10.5594 1.71794 10.1 1.40161 9.59451 1.18579C9.08899 0.969968 8.54717 0.858887 8 0.858887C6.89493 0.858887 5.83512 1.31135 5.05372 2.11673C4.27232 2.92211 3.83333 4.01444 3.83333 5.15342H2.16667C1.24167 5.15342 0.5 5.91785 0.5 6.87123V17.1781C0.5 17.6337 0.675595 18.0706 0.988155 18.3928C1.30072 18.7149 1.72464 18.8959 2.16667 18.8959H13.8333C14.2754 18.8959 14.6993 18.7149 15.0118 18.3928C15.3244 18.0706 15.5 17.6337 15.5 17.1781V6.87123C15.5 6.41564 15.3244 5.97871 15.0118 5.65655C14.6993 5.3344 14.2754 5.15342 13.8333 5.15342Z" fill="#70988E"/>
</svg>
