<svg width="18" height="16" viewBox="0 0 18 16" fill="none" xmlns="http://www.w3.org/2000/svg">
<path d="M17.75 5.21334C17.75 10.8499 9.64141 15.4123 9.29609 15.6007C9.20508 15.6512 9.10335 15.6776 9 15.6776C8.89665 15.6776 8.79492 15.6512 8.70391 15.6007C8.35859 15.4123 0.25 10.8499 0.25 5.21334C0.251447 3.88973 0.762235 2.62077 1.6703 1.68483C2.57837 0.748901 3.80955 0.222439 5.09375 0.220947C6.70703 0.220947 8.11953 0.935987 9 2.14463C9.88047 0.935987 11.293 0.220947 12.9062 0.220947C14.1904 0.222439 15.4216 0.748901 16.3297 1.68483C17.2378 2.62077 17.7486 3.88973 17.75 5.21334Z" fill="#70988E"/>
</svg>
