<svg width="122" height="19" viewBox="0 0 122 19" fill="none" xmlns="http://www.w3.org/2000/svg">
<path d="M14.8849 6.44418H14.6408C14.7628 5.68848 14.7934 5.6255 14.7934 5.40509C14.7934 4.71237 12.8403 1.6266 9.36146 1.6266C5.39435 1.6266 3.07511 5.59402 3.07511 9.56143C3.07511 14.2216 5.63847 17.4648 9.42249 17.4648C13.7558 17.4648 13.7558 15.1977 13.7558 12.8676C13.7558 12.0489 13.7558 10.7894 12.4131 10.7894L11.8028 10.8209V10.4746C12.0774 10.4431 12.1079 10.4431 12.4436 10.4431C12.7793 10.4431 14.3051 10.569 14.6103 10.569C14.8849 10.569 16.075 10.4431 16.3497 10.4431C16.8074 10.4431 16.838 10.4431 17.1736 10.5375V10.8839C16.96 10.8524 16.7159 10.7894 16.5023 10.7894C15.4342 10.7894 15.4037 11.86 15.4037 12.4898V14.253C15.4037 15.0087 15.4037 15.0717 15.5563 15.4181C15.2816 15.7644 15.068 16.0163 14.3051 16.5201C13.5727 16.9925 12.1079 18.0001 9.42249 18.0001C4.60092 18.0001 1 14.253 1 9.84481C1 4.64939 5.3028 1.1228 9.33095 1.1228C10.338 1.1228 11.1619 1.3747 11.7722 1.59511C13.0234 2.06742 13.176 2.09891 13.5117 2.09891C14.122 2.09891 14.3051 2.03594 14.6103 1.90999C14.6408 2.44527 15.0985 4.71237 15.0985 5.21617C15.0985 5.78294 15.007 6.06633 14.8849 6.44418ZM25.4671 2.98056V16.0478C25.4671 16.772 25.6502 17.2758 27.6338 17.2758C29.4037 17.2758 30.7159 16.9925 32.0281 16.1423C32.8826 15.607 33.4319 15.1347 33.5234 14.0956H33.7371C33.7371 14.5994 33.7371 15.0087 33.2488 15.7959C33.0352 16.1423 32.1502 17.3388 32.0281 17.8741C31.1432 17.8426 30.2277 17.8111 29.3427 17.8111H22.9343C22.6902 17.8426 22.5376 17.8741 22.385 17.8741C22.2019 17.8741 22.0188 17.8426 21.8662 17.8111V17.4648C22.0493 17.4963 22.2324 17.4963 22.4155 17.4963C23.4531 17.4963 23.7582 16.961 23.7582 15.9849V4.33452C23.7582 3.07502 23.7582 1.68958 22.2019 1.68958C22.0493 1.68958 21.8662 1.68958 21.7136 1.72106V1.3747C21.9578 1.34322 22.2019 1.31173 22.4765 1.31173C23.3615 1.31173 24.216 1.50065 24.5211 1.50065C24.7958 1.50065 25.5892 1.31173 26.2606 1.31173C26.6573 1.31173 26.993 1.34322 27.3592 1.3747V1.72106C27.1455 1.68958 27.0845 1.68958 26.7488 1.68958C26.2606 1.68958 26.0164 1.75255 25.8639 1.90999C25.6808 2.09891 25.4671 2.41379 25.4671 2.98056ZM54.3628 9.46697C54.3628 12.9936 51.5248 18.0001 46.0929 18.0001C40.4474 18.0001 37.6094 14.1271 37.6094 9.81333C37.6094 5.34211 41.3018 1.1228 46.0319 1.1228C50.9145 1.1228 54.3628 4.36601 54.3628 9.46697ZM52.6844 10.632C52.6844 7.48326 50.9755 1.65809 45.7572 1.65809C42.0342 1.65809 39.2878 4.90129 39.2878 9.30953C39.2878 12.7731 41.4849 17.4333 46.3065 17.4333C50.1516 17.4333 52.6844 14.5364 52.6844 10.632ZM65.6807 18.0001L60.4014 3.79923C59.9436 2.53974 59.608 1.97296 59.3028 1.75255C59.2112 1.68958 58.9366 1.68958 58.7535 1.68958C58.4789 1.68958 58.2652 1.72106 57.9906 1.75255V1.34321C58.2652 1.31172 58.3263 1.31173 58.784 1.31173C59.3333 1.31173 60.3403 1.43768 60.5845 1.43768C60.9812 1.43768 61.7746 1.31173 62.446 1.31173C62.7511 1.31173 62.9037 1.31173 63.2394 1.3747V1.75255C63.0868 1.72106 62.8732 1.68958 62.5985 1.68958L62.1713 1.78404C61.9882 1.90999 61.8051 2.00445 61.8051 2.41379C61.8051 2.69717 61.8967 2.94907 61.9882 3.20097L66.3215 14.8828L68.8849 8.113L67.0539 3.23246C66.7488 2.41378 66.4741 1.90999 66.2605 1.78404C66.1079 1.68957 65.7722 1.68958 65.4976 1.68958C65.3145 1.68958 65.1009 1.68958 64.9178 1.72106V1.34321C65.0704 1.34321 65.2535 1.31173 65.406 1.31173C65.6807 1.31173 67.0234 1.43768 67.176 1.43768C67.6948 1.43768 68.183 1.31173 68.7934 1.31173C69.0375 1.31173 69.2816 1.31172 69.4342 1.34321V1.72106C69.3121 1.68958 69.1901 1.68958 69.0985 1.68958C68.9459 1.68958 68.8239 1.68958 68.7018 1.72106C68.5492 1.78404 68.4577 1.94148 68.4577 2.19338C68.4577 2.35081 68.4882 2.50825 68.5492 2.69717L69.7699 5.81443L70.8074 3.07502C70.9295 2.72866 70.9905 2.44527 70.9905 2.28783C70.9905 2.1304 70.9905 1.97296 70.96 1.8785C70.899 1.78404 70.8379 1.75255 70.7464 1.72106C70.6243 1.68958 70.5328 1.68958 70.4412 1.68958C70.3802 1.68958 70.3192 1.68958 70.2276 1.72106V1.34321C70.3802 1.31172 70.5633 1.31173 70.7159 1.31173C70.96 1.31173 71.6924 1.43768 71.9976 1.43768C72.1807 1.43768 72.852 1.31173 73.0656 1.31173C73.2793 1.31173 73.5234 1.34322 73.737 1.3747V1.72106C73.4929 1.68958 73.4013 1.68958 73.1572 1.68958C72.5469 1.68958 71.8755 1.81553 71.2041 3.61031L70.075 6.66459L73.1572 14.8828L77.3684 3.83072C77.4295 3.64179 77.6126 2.82312 77.6126 2.57122C77.6126 2.1304 77.3989 1.84701 77.2159 1.75255C76.9717 1.72106 76.7886 1.68958 76.5445 1.68958C76.3919 1.68958 76.2088 1.68958 76.0257 1.72106V1.34321C76.2088 1.34321 76.4224 1.31173 76.6055 1.31173C76.8497 1.31173 77.9482 1.43768 78.1619 1.46916C78.4365 1.46916 79.5351 1.31173 79.7487 1.31173C79.8708 1.31173 79.9928 1.34322 80.2064 1.3747C80.2064 1.43768 80.1759 1.56363 80.1759 1.72106C80.0539 1.68958 79.9623 1.68958 79.8402 1.68958C78.8332 1.68958 78.1924 3.23246 77.9177 3.98816L72.6689 18.0001H72.5774L69.1901 8.99465L65.7722 18.0001H65.6807ZM89.8866 1.34321V1.72106C89.673 1.68958 89.4594 1.68958 89.2763 1.68958C87.9031 1.68958 87.842 3.07502 87.842 3.83072V15.4496C87.842 16.0793 87.842 17.4333 89.3068 17.4333C89.4289 17.4333 89.5815 17.4333 89.734 17.4018V17.8111H88.6965C88.4218 17.8111 87.2622 17.6852 87.0181 17.6852C86.8045 17.6852 85.828 17.8111 85.6449 17.8111H84.3021V17.4018C84.4852 17.4333 84.6989 17.4333 84.9125 17.4333C86.1331 17.4333 86.1331 16.5201 86.1331 15.4181V3.8622C86.1331 2.66568 86.1331 1.68958 84.7904 1.68958C84.6073 1.68958 84.4242 1.68958 84.2411 1.72106V1.34321L84.6988 1.31173C85.3702 1.31173 86.4078 1.43768 87.0791 1.43768C87.4148 1.43768 88.9101 1.31173 89.2458 1.31173C89.5815 1.31173 89.612 1.31172 89.8866 1.34321ZM100.228 7.76664L101.449 8.80573C103.311 10.3801 104.165 11.8915 104.165 13.6863C104.165 15.0717 103.372 17.8426 99.2824 17.8426C97.4514 17.8426 96.5969 16.898 95.2542 16.898C95.2542 16.0478 94.827 14.7883 94.827 13.9382C94.827 13.6548 94.827 13.214 94.9491 12.8991H95.2237C95.1932 13.1825 95.1627 13.4029 95.1627 13.6863C95.1627 14.1901 95.2237 14.7569 95.3763 15.0717C95.4068 15.1347 96.1087 15.9849 96.8106 16.4887C97.2073 16.8035 97.9702 17.3703 99.4044 17.3703C101.235 17.3703 102.761 16.0793 102.761 14.1271C102.761 12.1119 101.083 10.632 100.015 9.68738L98.7636 8.58532C96.9631 7.01095 95.9866 6.1293 95.9866 4.39749C95.9866 2.91759 97.2073 1.15429 99.4655 1.15429C100.411 1.15429 100.9 1.34322 102.67 2.03594C102.853 2.6342 102.883 2.91758 102.883 3.51584C102.883 3.79923 102.883 4.30303 102.67 5.02724H102.365C102.395 4.80683 102.517 4.08262 102.517 3.67328C102.517 3.54733 101.48 1.65809 99.5875 1.65809C98.3059 1.65809 97.2683 2.50825 97.2683 3.73626C97.2683 4.3975 97.4209 5.3736 100.228 7.76664ZM117.124 1.40619L118.681 1.3747C118.803 1.72107 119.444 3.16948 119.566 3.48436C119.779 4.01964 119.779 4.20857 119.779 4.68088H119.535C119.505 2.47676 116.209 1.94147 114.164 1.94147C113.829 1.94147 113.066 1.97296 113.066 2.53974V8.8687H115.751C117.216 8.8687 117.521 8.05003 117.521 7.67219C117.521 7.42029 117.43 7.13689 117.369 6.85351L117.552 6.72756C117.765 7.07393 117.765 7.16838 117.826 8.05003C117.918 9.34102 117.918 9.49845 118.131 10.1282C118.315 10.6635 118.315 11.1358 118.315 11.5451H118.101C117.979 9.40399 117.063 9.40399 113.066 9.46697V16.2053C113.066 16.9295 113.646 17.2758 114.225 17.2758H115.782C115.843 17.2758 117.369 17.2758 118.894 16.5201C120.573 15.67 120.603 15.4181 120.695 14.7254H121C120.908 15.3236 120.847 15.607 120.481 16.1738C120.298 16.4572 119.413 17.6537 119.291 17.9371C118.04 17.7796 113.737 17.7167 112.272 17.7167C111.906 17.7167 111.54 17.7482 111.174 17.7482C110.777 17.7796 110.411 17.8111 110.045 17.8111C109.831 17.8111 109.587 17.8111 109.343 17.7482V17.3703C109.526 17.4018 109.739 17.4333 109.923 17.4333C110.167 17.4333 110.563 17.3703 110.838 17.1814C111.235 16.772 111.387 16.1738 111.387 15.1977V3.51584C111.387 2.60271 111.326 1.68958 110.106 1.68958C109.77 1.68958 109.739 1.68958 109.465 1.72106V1.3747C109.739 1.31173 109.953 1.28024 110.35 1.28024C110.838 1.28024 113.005 1.40619 113.462 1.40619H117.124Z" fill="#373737"/>
</svg>
